<svg version="1.1" id="Layer_1" xmlns="http://www.w3.org/2000/svg" xmlns:xlink="http://www.w3.org/1999/xlink" x="0px" y="0px"
	 width="100%" viewBox="0 0 230 76" enable-background="new 0 0 230 76" xml:space="preserve">
<path fill="#000000" opacity="1.000000" stroke="none" 
	d="
M43.000000,1.000000 
	C105.621536,1.000000 168.243073,1.000000 230.932312,1.000000 
	C230.932312,26.269814 230.932312,51.539845 230.932312,76.904938 
	C154.452026,76.904938 77.903885,76.904938 1.177875,76.904938 
	C1.177875,51.667603 1.177875,26.333958 1.177875,1.000000 
	C13.413667,1.000000 25.738174,1.000000 38.531342,1.347532 
	C38.999397,2.620446 38.998798,3.545829 38.581001,4.499071 
	C36.776295,4.603632 35.388790,4.680334 33.945217,4.461351 
	C33.260635,3.776738 32.632114,3.387807 31.616144,2.976187 
	C28.882965,3.471961 26.037611,3.324910 25.735786,7.033139 
	C24.993187,7.382222 24.496105,7.591088 23.955132,7.519844 
	C23.257267,7.191195 22.603296,7.142655 21.578428,7.051150 
	C20.455564,8.005095 19.703598,9.002005 18.610035,10.004837 
	C17.514177,10.634620 16.759914,11.258478 15.629580,11.907097 
	C14.100605,12.998326 12.947704,14.064795 11.588480,15.400261 
	C11.597976,16.279821 11.813795,16.890385 11.981605,17.719130 
	C11.933595,17.937309 11.599148,18.233578 11.326973,17.964516 
	C10.497149,17.794073 9.939501,17.892693 9.381853,17.991314 
	C9.634570,18.677845 9.887286,19.364378 10.082521,20.375580 
	C9.509236,21.663038 8.993432,22.625828 8.025883,23.452478 
	C7.085813,25.199272 6.597488,27.082203 6.017731,29.076336 
	C5.926299,29.187540 5.667271,29.313274 5.438281,29.298515 
	C5.361845,29.330080 5.514398,29.376404 5.832080,29.904657 
	C5.799440,34.595154 5.601672,38.803722 5.038849,43.042816 
	C2.278052,47.343792 5.162128,50.545662 6.962718,54.333763 
	C8.382343,56.822235 9.721065,58.960144 11.398458,61.378716 
	C12.600122,61.649410 13.463117,61.639439 14.293825,61.723976 
	C14.261539,61.818481 14.446447,61.894005 14.075304,62.180901 
	C14.767893,63.312653 15.831625,64.157501 16.929115,65.358475 
	C17.954828,68.325119 18.907377,71.043488 22.452110,67.724640 
	C24.509972,68.648468 26.228304,69.443672 27.965157,70.414032 
	C27.983679,70.589195 28.013937,70.940163 27.756577,70.965363 
	C27.328154,70.970703 27.157093,70.950836 26.796631,70.802628 
	C26.714241,71.455383 26.821255,72.236496 27.167347,72.992165 
	C27.406425,72.966721 27.886475,72.938889 28.288754,72.957207 
	C36.587807,75.055748 44.376282,74.642899 52.214211,71.866928 
	C52.243084,71.520927 52.123898,71.268120 52.004494,70.748108 
	C52.005466,70.124649 52.006660,69.768379 52.282791,69.226654 
	C53.572578,68.618767 54.587429,68.196342 55.949593,67.937576 
	C59.895073,70.213493 61.197079,68.111458 62.288330,64.966370 
	C63.090595,64.251106 63.562721,63.586159 64.371727,62.893803 
	C66.028839,61.842602 67.349060,60.818802 69.751595,58.955700 
	C67.424904,58.955700 66.618332,58.955700 65.907425,58.657280 
	C66.846626,57.186867 67.690155,56.014870 68.802841,54.872196 
	C69.404655,54.777901 69.737320,54.654278 70.069977,54.530655 
	C69.738647,54.353935 69.407318,54.177216 69.069633,53.700508 
	C69.538406,52.842667 70.013535,52.284809 70.626976,51.894028 
	C70.949631,52.049957 71.133972,52.038818 71.318306,52.027676 
	C71.095901,51.864822 70.873505,51.701973 70.441086,51.230568 
	C70.756927,49.591209 71.282799,48.260406 72.189964,46.910839 
	C73.386253,44.979805 74.201256,43.067539 75.056915,40.760597 
	C75.068115,38.179951 75.038651,35.993977 74.997810,33.440247 
	C73.878311,31.755337 72.770195,30.438183 71.458374,28.915691 
	C71.174751,28.141106 71.094849,27.571856 71.285202,26.963448 
	C71.765640,26.758018 71.975815,26.591749 72.185982,26.425478 
	C71.664787,26.346647 71.143600,26.267818 70.420563,25.986452 
	C70.265923,25.153637 70.313126,24.523357 70.624969,23.830141 
	C70.993050,23.678877 71.096497,23.590551 71.199951,23.502224 
	C70.904572,23.576361 70.609200,23.650499 69.936539,23.747108 
	C69.100029,22.919994 68.640800,22.070406 68.532494,21.090904 
	C70.006210,18.624334 69.797676,18.399530 65.855057,17.779871 
	C65.272461,17.099581 64.934097,16.598989 64.944641,16.071388 
	C65.466782,15.423601 65.640022,14.802827 65.813271,14.182053 
	C64.740410,14.096833 63.667553,14.011613 62.206841,13.621215 
	C61.687721,13.014347 61.556450,12.712658 61.766937,12.316642 
	C62.171913,12.082359 62.305767,11.929997 62.283817,11.804998 
	C62.236404,11.535017 62.109055,11.279074 61.959709,10.876556 
	C61.795486,10.773957 61.685963,10.812188 61.576439,10.850419 
	C61.669762,10.939175 61.763084,11.027930 61.819115,11.478001 
	C61.625298,12.024903 61.468773,12.210490 61.009594,12.389143 
	C59.796833,11.612254 58.886726,10.842298 57.820786,9.827880 
	C57.316288,9.434647 56.967625,9.285874 56.444778,9.161188 
	C56.270596,9.185274 56.008915,8.950330 55.994270,8.608376 
	C54.899300,7.894746 53.818977,7.523071 52.446884,7.112332 
	C51.785400,6.945735 51.415688,6.818202 51.045097,6.370545 
	C50.839535,5.475070 50.634857,4.899716 50.430176,4.324363 
	C49.946747,4.834207 49.463318,5.344051 48.692245,5.871283 
	C47.914433,5.646450 47.424255,5.404230 47.037666,4.860282 
	C46.060452,4.056423 44.979645,3.554293 43.674191,3.050736 
	C43.449539,3.049310 43.000267,3.043568 43.000237,2.702974 
	C43.000141,1.908253 43.000072,1.454126 43.000000,1.000000 
M133.060303,31.494762 
	C133.259003,31.464804 133.457687,31.434845 133.656387,31.404886 
	C133.495163,31.220476 133.333923,31.036066 132.955826,30.568092 
	C132.824295,30.542126 132.692780,30.516159 132.561249,30.490194 
	C132.655838,30.719900 132.750443,30.949608 133.060303,31.494762 
M91.000885,30.007900 
	C91.000885,30.007900 90.939156,29.962666 90.693916,29.472509 
	C90.112213,29.650211 89.530518,29.827915 88.478470,30.449921 
	C88.992867,32.303635 89.507263,34.157352 90.021194,36.667931 
	C90.022636,37.105839 90.024078,37.543747 89.466759,38.490063 
	C89.313850,39.999218 89.160934,41.508377 89.086815,43.624683 
	C90.060379,43.409130 91.033951,43.193577 92.003067,42.169849 
	C92.003639,40.834133 92.004219,39.498413 92.524391,38.318962 
	C93.016930,38.545879 93.509460,38.772793 94.062302,39.735538 
	C95.346405,44.225906 98.805740,40.256298 100.971077,41.908535 
	C100.987534,42.185184 100.995834,42.462082 100.965332,43.425121 
	C101.958687,43.311165 102.952034,43.197212 103.977890,42.190697 
	C103.968948,40.093914 103.960007,37.997131 103.939285,35.301350 
	C103.943184,34.901974 103.947083,34.502598 103.985107,33.277069 
	C103.988220,32.181293 103.991325,31.085516 103.517441,29.432470 
	C100.827400,28.225571 99.768616,29.243145 99.996208,32.524220 
	C99.995239,32.694042 99.994263,32.863865 99.468727,33.394779 
	C98.500854,34.678173 97.532982,35.961563 96.685860,37.084839 
	C95.744438,36.713364 94.884735,36.374134 93.490311,35.577351 
	C93.297256,34.665527 93.104195,33.753700 92.767693,32.508472 
	C92.625389,32.300442 92.432495,32.163658 92.098854,31.986443 
	C92.098854,31.986443 91.993759,31.888680 91.985847,31.515192 
	C91.985847,31.515192 91.971863,31.141882 91.888847,30.620701 
	C91.611855,30.433466 91.334854,30.246233 91.000885,30.007900 
M139.463562,32.187790 
	C139.304764,32.499954 139.145966,32.812119 138.995239,34.002533 
	C138.998199,35.668476 138.573654,37.491531 139.113419,38.960197 
	C139.773285,40.755650 140.963287,43.235638 142.425903,43.650570 
	C144.619431,44.272861 147.249649,43.355824 149.694168,43.093399 
	C149.624557,42.651157 149.554962,42.208916 149.485352,41.766674 
	C141.830963,41.263508 141.056442,40.227589 142.786346,32.007874 
	C144.431015,32.007874 146.212494,32.007874 148.105392,32.271004 
	C148.188141,32.317917 148.270905,32.364830 148.353653,32.411747 
	C148.238480,32.272404 148.123306,32.133064 148.193466,31.523195 
	C148.455978,31.090933 148.718491,30.658672 148.757217,29.566559 
	C148.112961,29.377323 147.468689,29.188087 146.170044,28.998655 
	C145.515671,29.001919 144.861313,29.005182 143.461624,28.974907 
	C142.312927,29.975874 141.164230,30.976839 139.995789,32.000416 
	C139.995789,32.000416 139.976196,32.023140 139.463562,32.187790 
M221.502121,40.972790 
	C221.768158,40.808506 222.034210,40.644218 222.300262,40.479946 
	C221.856339,40.316792 221.412415,40.153633 220.347351,39.996243 
	C219.933258,39.999928 219.519180,40.003613 218.706100,39.494568 
	C217.815170,40.075871 216.924225,40.657169 216.033279,41.238472 
	C216.820847,41.826324 217.608429,42.414181 219.038208,42.983292 
	C219.690536,42.327927 220.342850,41.672562 221.502121,40.972790 
M224.370773,31.096245 
	C223.730789,32.720703 223.090805,34.345158 222.450821,35.969616 
	C223.010208,36.184303 223.569611,36.398991 224.128998,36.613678 
	C224.809113,35.042744 225.489227,33.471813 226.382919,31.577129 
	C225.932617,31.381620 225.482315,31.186111 224.370773,31.096245 
M213.021912,29.466328 
	C212.486206,29.466612 211.950500,29.466894 211.414795,29.467178 
	C211.947845,30.348162 212.480881,31.229143 213.080780,32.769035 
	C213.614807,34.187702 214.148834,35.606369 214.902985,37.522114 
	C215.601044,37.358196 216.299118,37.194283 216.989136,36.294346 
	C215.793961,34.195599 214.598785,32.096851 213.021912,29.466328 
M157.256256,36.652348 
	C157.504532,37.102810 157.752792,37.553268 157.993103,38.852276 
	C157.993103,40.735504 157.993103,42.618736 157.993103,44.904388 
	C163.412689,43.914635 161.049927,40.480618 161.017044,37.216766 
	C161.197464,35.979733 161.377884,34.742695 161.728409,32.339512 
	C159.376373,32.970856 157.679352,33.426388 155.985535,34.556480 
	C156.326431,35.104008 156.667328,35.651539 157.256256,36.652348 
M129.232941,33.963776 
	C128.758774,34.308990 128.284607,34.654205 127.412971,34.997238 
	C127.412971,34.997238 127.015495,34.994320 127.000099,34.999947 
	C127.000099,34.999947 127.005676,34.984741 126.951279,34.348751 
	C126.633598,33.564140 126.315918,32.779533 126.139633,31.292881 
	C127.449631,30.636314 128.759628,29.979746 130.392517,29.161350 
	C127.991882,29.161350 125.942383,29.161350 123.803070,29.161350 
	C124.268860,30.258144 124.638176,31.127789 124.266464,32.156590 
	C123.847939,35.778698 123.429413,39.400810 123.087654,43.621197 
	C124.053879,43.421753 125.020103,43.222305 125.996353,42.245373 
	C126.987358,41.164154 127.978371,40.082935 129.264648,39.631084 
	C130.840164,41.182251 132.415665,42.733418 134.328247,44.616436 
	C133.906296,40.956089 133.555908,37.916489 133.146652,34.366245 
	C132.409622,34.292965 131.154846,34.168209 129.232941,33.963776 
M203.873581,35.453186 
	C204.533646,35.306686 205.193710,35.160183 205.853775,35.013683 
	C205.647156,34.515652 205.440536,34.017624 205.233917,33.519592 
	C204.133514,34.155941 203.033127,34.792286 201.353073,35.873062 
	C201.176682,38.764172 199.836639,42.517982 201.157242,44.299252 
	C202.430603,46.016796 206.492798,45.854897 208.774567,42.420261 
	C206.724899,42.110401 205.141632,41.871048 202.998856,41.547108 
	C202.998856,39.421871 202.998856,37.480110 203.873581,35.453186 
M187.415970,41.371788 
	C187.309433,42.037144 187.202881,42.702496 187.096344,43.367847 
	C189.022614,43.012005 191.445129,43.271778 192.786606,42.190449 
	C197.770721,38.172867 196.857742,33.954945 189.358170,28.771795 
	C189.837524,31.021374 189.748199,32.634666 190.479111,33.667507 
	C193.126160,37.408009 192.176987,39.711594 187.415970,41.371788 
M108.834793,35.872234 
	C109.182358,37.281269 109.529930,38.690304 109.868896,40.064480 
	C112.425285,39.065948 114.618210,38.209385 115.737450,37.772205 
	C114.306091,36.582153 112.544479,35.117531 110.175934,33.148293 
	C113.718277,31.998253 115.741020,31.341562 117.763756,30.684870 
	C117.624565,30.219330 117.485367,29.753790 117.346169,29.288250 
	C114.913506,29.288250 112.480843,29.288250 109.891602,29.288250 
	C109.466820,31.220734 109.028954,33.212708 108.834793,35.872234 
M184.999985,37.506199 
	C185.221207,35.131607 185.442429,32.757019 185.769455,29.246746 
	C184.334671,30.499086 182.305313,31.412249 182.183426,32.532879 
	C181.767944,36.352734 182.024414,40.245674 182.024414,44.110722 
	C182.586151,44.198505 183.147903,44.286293 183.709641,44.374077 
	C184.139755,42.367748 184.569885,40.361420 184.999985,37.506199 
M116.217308,42.051590 
	C115.585480,42.709259 114.953644,43.366924 114.321815,44.024593 
	C115.444275,44.184666 116.566742,44.344738 117.689209,44.504810 
	C117.431839,43.713196 117.174469,42.921585 116.217308,42.051590 
M205.480270,31.991173 
	C206.512756,31.892157 207.545242,31.793140 208.577744,31.694124 
	C208.545044,31.421659 208.512344,31.149195 208.479645,30.876730 
	C206.211075,31.097601 203.942520,31.318472 201.673950,31.539343 
	C201.749298,31.979553 201.824631,32.419762 201.899963,32.859974 
	C202.806442,32.571888 203.712906,32.283802 205.480270,31.991173 
M165.295181,31.598150 
	C165.337067,30.935215 165.378952,30.272282 165.420837,29.609346 
	C165.145966,29.606089 164.871078,29.602831 164.596191,29.599573 
	C164.625061,30.263872 164.653915,30.928171 165.295181,31.598150 
M154.220871,32.198410 
	C154.408432,32.135548 154.595993,32.072685 154.783554,32.009827 
	C154.594757,31.948627 154.405945,31.887428 154.220871,32.198410 
M109.832497,43.255451 
	C109.885063,43.415417 109.937630,43.575386 109.990196,43.735352 
	C110.041801,43.574539 110.093407,43.413723 109.832497,43.255451 
M112.420166,43.484062 
	C112.420166,43.484062 112.522209,43.425083 112.420166,43.484062 
M208.002304,35.498497 
	C208.295334,35.531487 208.588348,35.564476 208.881378,35.597473 
	C208.751816,35.404827 208.622253,35.212181 208.002304,35.498497 
z"/>
<path fill="#010101" opacity="1.000000" stroke="none" 
	d="
M42.600121,1.000000 
	C43.000072,1.454126 43.000141,1.908253 42.777287,2.828128 
	C42.353523,3.745889 42.152687,4.197901 41.582115,4.684049 
	C40.474316,4.635860 39.736259,4.553535 38.998199,4.471211 
	C38.998798,3.545829 38.999397,2.620446 39.000000,1.347532 
	C40.066746,1.000000 41.133492,1.000000 42.600121,1.000000 
z"/>
<path fill="#EBEAEA" opacity="1.000000" stroke="none" 
	d="
M71.014946,27.002607 
	C71.094849,27.571856 71.174751,28.141106 71.499352,29.377026 
	C71.765579,35.672333 71.787125,41.300968 71.808670,46.929604 
	C71.282799,48.260406 70.756927,49.591209 70.421646,51.295837 
	C70.612221,51.669659 70.488655,51.726948 70.488655,51.726952 
	C70.013535,52.284809 69.538406,52.842667 68.883118,53.878304 
	C68.646530,54.518349 68.590103,54.680611 68.533684,54.842869 
	C67.690155,56.014870 66.846626,57.186867 65.660019,58.747559 
	C64.791245,59.824062 64.265533,60.511868 63.434368,61.390789 
	C62.138721,62.621548 61.148525,63.661194 59.862679,64.778351 
	C58.245445,65.828552 56.923862,66.801231 55.602280,67.773911 
	C54.587429,68.196342 53.572578,68.618767 51.873264,69.351471 
	C50.924072,69.768440 50.659348,69.875130 50.442253,70.026337 
	C50.489891,70.070869 50.642715,70.028572 50.213348,70.075500 
	C42.518448,72.707466 35.237316,72.368401 27.946636,70.238876 
	C26.228304,69.443672 24.509972,68.648468 22.347000,67.520615 
	C21.546593,66.919075 21.190825,66.650177 20.981499,66.082863 
	C21.464613,65.504021 21.801285,65.223595 22.480900,65.018723 
	C42.184021,75.729393 64.892624,65.900475 69.425568,44.382084 
	C72.405838,30.234396 66.646454,19.126940 55.002136,10.592550 
	C55.000450,9.847854 55.000622,9.422310 55.254097,9.012853 
	C55.674576,9.002736 55.841743,8.976533 56.008915,8.950330 
	C56.008915,8.950330 56.270596,9.185274 56.576782,9.429064 
	C57.247517,9.806017 57.612068,9.939178 57.976620,10.072341 
	C58.886726,10.842298 59.796833,11.612254 61.041695,12.389776 
	C61.376453,12.397343 61.425175,12.410968 61.425175,12.410968 
	C61.556450,12.712658 61.687721,13.014347 62.268501,13.811766 
	C63.343914,14.904463 63.969826,15.501431 64.595734,16.098398 
	C64.934097,16.598989 65.272461,17.099581 65.892853,18.061014 
	C66.843773,19.421511 67.512665,20.321165 68.181564,21.220819 
	C68.640800,22.070406 69.100029,22.919994 69.990303,23.774866 
	C70.421341,23.780149 70.360336,23.893080 70.360336,23.893080 
	C70.313126,24.523357 70.265923,25.153637 70.445892,26.224983 
	C70.673058,26.666054 71.014946,27.002607 71.014946,27.002607 
z"/>
<path fill="#E0E0E0" opacity="1.000000" stroke="none" 
	d="
M5.403904,43.012287 
	C5.601672,38.803722 5.799440,34.595154 5.797651,29.879492 
	C5.598095,29.372395 5.667271,29.313274 5.667271,29.313274 
	C5.667271,29.313274 5.926299,29.187540 6.268812,28.888279 
	C7.233427,26.922218 7.855528,25.255417 8.477629,23.588615 
	C8.993432,22.625828 9.509236,21.663038 10.314478,20.289772 
	C10.935659,19.330719 11.267403,18.782148 11.599147,18.233578 
	C11.599148,18.233578 11.933595,17.937309 12.165741,17.668158 
	C12.619436,17.268080 12.814994,17.105829 13.239367,16.941624 
	C13.665114,16.966667 13.836056,16.962336 14.086994,17.329617 
	C6.568889,29.743458 5.112005,42.120857 11.855762,55.124870 
	C11.333913,55.637741 11.089731,55.986725 10.585871,56.153847 
	C9.822522,55.306168 9.318851,54.640354 8.808292,53.616844 
	C7.668904,49.843521 6.536404,46.427906 5.403904,43.012287 
z"/>
<path fill="#E6E7E5" opacity="1.000000" stroke="none" 
	d="
M55.000793,8.996766 
	C55.000622,9.422310 55.000450,9.847854 54.641220,10.538057 
	C44.581429,5.645110 34.761196,5.504833 24.759325,9.951913 
	C23.321791,10.591077 21.630144,10.658714 20.077316,10.665520 
	C21.134590,9.598616 22.170643,8.857036 23.423294,8.083082 
	C23.639893,8.050709 23.999022,7.799955 23.999022,7.799954 
	C24.496105,7.591088 24.993187,7.382222 26.093077,7.049139 
	C28.466045,6.271695 30.236208,5.618468 32.343479,4.996535 
	C33.120819,4.937564 33.561050,4.847300 34.001282,4.757035 
	C35.388790,4.680334 36.776295,4.603632 38.581001,4.499071 
	C39.736259,4.553535 40.474316,4.635860 41.918350,4.795125 
	C43.092861,4.849616 43.561401,4.827166 44.386753,4.892355 
	C45.473740,5.040665 46.203911,5.101337 46.934082,5.162010 
	C47.424255,5.404230 47.914433,5.646450 48.940460,6.013444 
	C49.999531,6.322368 50.522755,6.506518 51.045975,6.690667 
	C51.415688,6.818202 51.785400,6.945735 52.600639,7.373537 
	C53.697708,8.114792 54.349251,8.555779 55.000793,8.996766 
z"/>
<path fill="#010101" opacity="1.000000" stroke="none" 
	d="
M147.993958,32.007874 
	C146.212494,32.007874 144.431015,32.007874 142.786346,32.007874 
	C141.056442,40.227589 141.830963,41.263508 149.485352,41.766674 
	C149.554962,42.208916 149.624557,42.651157 149.694168,43.093399 
	C147.249649,43.355824 144.619431,44.272861 142.425903,43.650570 
	C140.963287,43.235638 139.773285,40.755650 139.113419,38.960197 
	C138.573654,37.491531 138.998199,35.668476 139.232452,33.454353 
	C139.638504,32.611828 139.807358,32.317486 139.976196,32.023140 
	C139.976196,32.023140 139.995789,32.000416 140.309631,31.874195 
	C141.817963,30.834797 143.012451,29.921621 144.206940,29.008444 
	C144.861313,29.005182 145.515671,29.001919 146.683716,29.264629 
	C147.791931,29.762539 148.386459,29.994474 148.981003,30.226410 
	C148.718491,30.658672 148.455978,31.090933 148.096741,31.761585 
	C148.000000,31.999975 147.993958,32.007874 147.993958,32.007874 
z"/>
<path fill="#010101" opacity="1.000000" stroke="none" 
	d="
M187.729202,41.235970 
	C192.176987,39.711594 193.126160,37.408009 190.479111,33.667507 
	C189.748199,32.634666 189.837524,31.021374 189.358170,28.771795 
	C196.857742,33.954945 197.770721,38.172867 192.786606,42.190449 
	C191.445129,43.271778 189.022614,43.012005 187.096344,43.367851 
	C187.202881,42.702496 187.309433,42.037144 187.729202,41.235970 
z"/>
<path fill="#010101" opacity="1.000000" stroke="none" 
	d="
M27.965157,70.414032 
	C35.237316,72.368401 42.518448,72.707466 50.173527,70.060394 
	C50.563068,69.998367 50.394619,69.981812 50.394619,69.981812 
	C50.659348,69.875130 50.924072,69.768440 51.598328,69.536942 
	C52.006660,69.768379 52.005466,70.124649 52.018188,70.984322 
	C52.032097,71.487732 52.066151,71.960121 52.066151,71.960121 
	C44.376282,74.642899 36.587807,75.055748 28.312317,72.625473 
	C27.960382,71.830338 27.987160,71.385246 28.013937,70.940163 
	C28.013937,70.940163 27.983679,70.589195 27.965157,70.414032 
z"/>
<path fill="#010101" opacity="1.000000" stroke="none" 
	d="
M108.712944,35.538456 
	C109.028954,33.212708 109.466820,31.220734 109.891602,29.288250 
	C112.480843,29.288250 114.913506,29.288250 117.346169,29.288250 
	C117.485367,29.753790 117.624565,30.219330 117.763756,30.684870 
	C115.741020,31.341562 113.718277,31.998253 110.175934,33.148293 
	C112.544479,35.117531 114.306091,36.582153 115.737450,37.772205 
	C114.618210,38.209385 112.425285,39.065948 109.868896,40.064480 
	C109.529930,38.690304 109.182358,37.281269 108.712944,35.538456 
z"/>
<path fill="#1D1D1D" opacity="1.000000" stroke="none" 
	d="
M100.924637,41.499981 
	C98.805740,40.256298 95.346405,44.225906 94.266510,39.206070 
	C94.322151,37.796032 94.173599,36.915466 94.025040,36.034904 
	C94.884735,36.374134 95.744438,36.713364 96.685860,37.084839 
	C97.532982,35.961563 98.500854,34.678173 99.966812,33.477222 
	C101.626923,33.740852 102.788956,33.922039 103.950981,34.103222 
	C103.947083,34.502598 103.943184,34.901974 103.593582,35.690487 
	C102.473457,37.886410 101.699051,39.693195 100.924637,41.499981 
z"/>
<path fill="#010101" opacity="1.000000" stroke="none" 
	d="
M185.000000,37.930645 
	C184.569885,40.361420 184.139755,42.367748 183.709641,44.374077 
	C183.147903,44.286293 182.586151,44.198505 182.024414,44.110722 
	C182.024414,40.245674 181.767944,36.352734 182.183426,32.532879 
	C182.305313,31.412249 184.334671,30.499086 185.769455,29.246746 
	C185.442429,32.757019 185.221207,35.131607 185.000000,37.930645 
z"/>
<path fill="#010101" opacity="1.000000" stroke="none" 
	d="
M202.998856,35.538345 
	C202.998856,37.480110 202.998856,39.421871 202.998856,41.547108 
	C205.141632,41.871048 206.724899,42.110401 208.774567,42.420261 
	C206.492798,45.854897 202.430603,46.016796 201.157242,44.299252 
	C199.836639,42.517982 201.176682,38.764172 201.912537,35.648048 
	C202.647614,35.461472 202.823227,35.499908 202.998856,35.538345 
z"/>
<path fill="#010101" opacity="1.000000" stroke="none" 
	d="
M72.189964,46.910839 
	C71.787125,41.300968 71.765579,35.672333 71.703064,29.582361 
	C72.770195,30.438183 73.878311,31.755337 74.667397,33.686996 
	C74.570992,36.586090 74.793625,38.870678 75.016251,41.155270 
	C74.201256,43.067539 73.386253,44.979805 72.189964,46.910839 
z"/>
<path fill="#010101" opacity="1.000000" stroke="none" 
	d="
M123.010895,43.022919 
	C123.429413,39.400810 123.847939,35.778698 124.884628,32.077740 
	C125.502785,31.998890 125.998230,31.994925 125.998230,31.994923 
	C126.315918,32.779533 126.633598,33.564140 126.670898,34.668690 
	C125.848633,35.217827 125.306755,35.447025 124.764870,35.676224 
	C125.077255,36.010658 125.389648,36.345097 125.702034,36.679527 
	C126.139854,36.117790 126.577675,35.556053 127.015495,34.994316 
	C127.015495,34.994320 127.412971,34.997238 127.718552,35.281765 
	C128.343918,35.789494 128.663712,36.012699 128.987000,36.581673 
	C128.983459,37.618866 128.976425,38.310291 128.969391,39.001717 
	C127.978371,40.082935 126.987358,41.164154 125.619598,42.628853 
	C124.498863,43.015858 123.754883,43.019390 123.010895,43.022919 
z"/>
<path fill="#E0E0E0" opacity="1.000000" stroke="none" 
	d="
M10.845549,56.335712 
	C11.089731,55.986725 11.333913,55.637741 12.111217,55.331196 
	C15.808877,58.563480 18.973417,61.753326 22.137955,64.943169 
	C21.801285,65.223595 21.464613,65.504021 20.673653,65.973953 
	C19.139734,65.460899 18.060110,64.758331 16.816818,63.790565 
	C15.917584,62.981575 15.182016,62.437790 14.446447,61.894005 
	C14.446447,61.894005 14.261539,61.818481 14.190514,61.458668 
	C13.326570,60.367096 12.533651,59.635338 11.770943,58.621597 
	C11.482618,57.671646 11.164084,57.003677 10.845549,56.335712 
z"/>
<path fill="#111111" opacity="1.000000" stroke="none" 
	d="
M129.117020,39.316399 
	C128.976425,38.310291 128.983459,37.618866 129.360199,36.443962 
	C129.786621,35.321476 129.843353,34.682465 129.900070,34.043457 
	C131.154846,34.168209 132.409622,34.292965 133.146652,34.366245 
	C133.555908,37.916489 133.906296,40.956089 134.328247,44.616436 
	C132.415665,42.733418 130.840164,41.182251 129.117020,39.316399 
z"/>
<path fill="#010101" opacity="1.000000" stroke="none" 
	d="
M158.001068,38.003731 
	C157.752792,37.553268 157.504532,37.102810 157.147125,36.080925 
	C156.686111,34.966976 156.334213,34.424446 155.982315,33.881916 
	C157.679352,33.426388 159.376373,32.970856 161.728409,32.339512 
	C161.377884,34.742695 161.197464,35.979733 160.761368,37.739868 
	C160.178024,38.912563 159.850357,39.562164 159.531021,40.195221 
	C159.006104,39.443340 158.503586,38.723534 158.001068,38.003731 
z"/>
<path fill="#010101" opacity="1.000000" stroke="none" 
	d="
M5.038849,43.042816 
	C6.536404,46.427906 7.668904,49.843521 8.487045,53.626808 
	C7.742395,53.990719 7.312105,53.986954 6.881814,53.983192 
	C5.162128,50.545662 2.278052,47.343792 5.038849,43.042816 
z"/>
<path fill="#010101" opacity="1.000000" stroke="none" 
	d="
M214.682861,37.025036 
	C214.148834,35.606369 213.614807,34.187702 213.075256,32.079369 
	C213.181015,30.925835 213.292313,30.461969 213.403610,29.998106 
	C214.598785,32.096851 215.793961,34.195599 216.609619,36.653366 
	C215.714340,37.016605 215.198608,37.020821 214.682861,37.025036 
z"/>
<path fill="#1C1C1C" opacity="1.000000" stroke="none" 
	d="
M157.997086,38.428001 
	C158.503586,38.723534 159.006104,39.443340 159.531021,40.195221 
	C159.850357,39.562164 160.178024,38.912563 160.758026,38.107780 
	C161.049927,40.480618 163.412689,43.914635 157.993103,44.904388 
	C157.993103,42.618736 157.993103,40.735504 157.997086,38.428001 
z"/>
<path fill="#111111" opacity="1.000000" stroke="none" 
	d="
M93.757675,35.806126 
	C94.173599,36.915466 94.322151,37.796032 94.236359,38.838150 
	C93.509460,38.772793 93.016930,38.545879 91.937943,38.178429 
	C90.909508,38.019146 90.467514,38.000401 90.025528,37.981655 
	C90.024078,37.543747 90.022636,37.105839 90.268768,36.113873 
	C91.008820,34.336105 91.501289,33.112392 91.993759,31.888680 
	C91.993759,31.888680 92.098854,31.986443 92.221886,32.200352 
	C92.491425,32.612656 92.680161,32.755192 92.911140,32.841877 
	C93.104195,33.753700 93.297256,34.665527 93.757675,35.806126 
z"/>
<path fill="#1D1D1D" opacity="1.000000" stroke="none" 
	d="
M14.006998,16.958002 
	C13.836056,16.962336 13.665114,16.966667 13.220301,16.642317 
	C12.562552,15.919513 12.178678,15.525390 11.794803,15.131266 
	C12.947704,14.064795 14.100605,12.998326 15.945557,11.947483 
	C17.274513,11.948877 17.911423,11.934646 18.584816,12.225785 
	C18.754765,12.686798 18.888229,12.842439 19.014278,13.000444 
	C19.006865,13.002810 19.002386,13.018058 18.666729,12.929847 
	C16.889715,14.213758 15.448357,15.585880 14.006998,16.958002 
z"/>
<path fill="#010101" opacity="1.000000" stroke="none" 
	d="
M100.947861,41.704258 
	C101.699051,39.693195 102.473457,37.886410 103.599464,35.989986 
	C103.960007,37.997131 103.968948,40.093914 103.592422,42.614380 
	C102.469971,42.938450 101.732971,42.838840 100.995979,42.739227 
	C100.995834,42.462082 100.987534,42.185184 100.947861,41.704258 
z"/>
<path fill="#1B1C1C" opacity="1.000000" stroke="none" 
	d="
M16.980484,64.055771 
	C18.060110,64.758331 19.139734,65.460899 20.527208,66.272369 
	C21.190825,66.650177 21.546593,66.919075 22.007471,67.391998 
	C18.907377,71.043488 17.954828,68.325119 16.950550,65.121788 
	C16.938225,64.528976 16.980484,64.055771 16.980484,64.055771 
z"/>
<path fill="#1B1C1C" opacity="1.000000" stroke="none" 
	d="
M6.962718,54.333763 
	C7.312105,53.986954 7.742395,53.990719 8.493933,53.984512 
	C9.318851,54.640354 9.822522,55.306168 10.585872,56.153847 
	C11.164084,57.003677 11.482618,57.671646 11.525301,59.153297 
	C11.186228,60.344009 11.123007,60.721027 11.059786,61.098049 
	C9.721065,58.960144 8.382343,56.822235 6.962718,54.333763 
z"/>
<path fill="#1D1D1D" opacity="1.000000" stroke="none" 
	d="
M32.006371,4.965242 
	C30.236208,5.618468 28.466045,6.271695 26.338593,6.908922 
	C26.037611,3.324910 28.882965,3.471961 31.616770,3.303980 
	C32.005356,4.091390 32.005859,4.528316 32.006371,4.965242 
z"/>
<path fill="#1D1D1D" opacity="1.000000" stroke="none" 
	d="
M55.949593,67.937576 
	C56.923862,66.801231 58.245445,65.828552 60.310768,64.874359 
	C61.355732,64.934113 61.656960,64.975395 61.958191,65.016685 
	C61.197079,68.111458 59.895073,70.213493 55.949593,67.937576 
z"/>
<path fill="#010101" opacity="1.000000" stroke="none" 
	d="
M91.989807,31.701937 
	C91.501289,33.112392 91.008820,34.336105 90.268997,35.785439 
	C89.507263,34.157352 88.992867,32.303635 89.046425,30.239241 
	C90.055969,30.006596 90.497566,29.984631 90.939156,29.962666 
	C90.939156,29.962666 91.000885,30.007900 91.087921,30.278149 
	C91.440590,30.746225 91.706230,30.944054 91.971863,31.141882 
	C91.971863,31.141882 91.985847,31.515192 91.989807,31.701937 
z"/>
<path fill="#010101" opacity="1.000000" stroke="none" 
	d="
M89.746140,38.235859 
	C90.467514,38.000401 90.909508,38.019146 91.678146,38.100296 
	C92.004219,39.498413 92.003639,40.834133 91.630035,42.574154 
	C90.507347,42.991482 89.757683,43.004505 89.008018,43.017532 
	C89.160934,41.508377 89.313850,39.999218 89.746140,38.235859 
z"/>
<path fill="#1B1B1B" opacity="1.000000" stroke="none" 
	d="
M226.169342,31.900879 
	C225.489227,33.471813 224.809113,35.042744 224.128998,36.613678 
	C223.569611,36.398991 223.010208,36.184303 222.450821,35.969616 
	C223.090805,34.345158 223.730789,32.720703 224.836060,31.256943 
	C225.590683,31.578718 225.880020,31.739799 226.169342,31.900879 
z"/>
<path fill="#010101" opacity="1.000000" stroke="none" 
	d="
M103.968048,33.690147 
	C102.788956,33.922039 101.626923,33.740852 100.229095,33.296677 
	C99.994263,32.863865 99.995239,32.694042 100.280197,32.086796 
	C101.707611,31.096159 102.851021,30.542948 103.994438,29.989738 
	C103.991325,31.085516 103.988220,32.181293 103.968048,33.690147 
z"/>
<path fill="#1D1D1D" opacity="1.000000" stroke="none" 
	d="
M63.739815,61.199673 
	C64.265533,60.511868 64.791245,59.824062 65.564362,59.045979 
	C66.618332,58.955700 67.424904,58.955700 69.751595,58.955700 
	C67.349060,60.818802 66.028839,61.842602 64.314270,62.461052 
	C63.859890,61.770355 63.799850,61.485012 63.739815,61.199673 
z"/>
<path fill="#010101" opacity="1.000000" stroke="none" 
	d="
M116.567207,42.090782 
	C117.174469,42.921585 117.431839,43.713196 117.689209,44.504810 
	C116.566742,44.344738 115.444275,44.184666 114.321815,44.024593 
	C114.953644,43.366924 115.585480,42.709259 116.567207,42.090782 
z"/>
<path fill="#1D1D1D" opacity="1.000000" stroke="none" 
	d="
M23.206696,8.115454 
	C22.170643,8.857036 21.134590,9.598616 19.863302,10.703854 
	C19.628067,11.067512 19.224730,11.230023 19.143150,10.925198 
	C19.024923,10.413219 18.988276,10.206066 18.951630,9.998914 
	C19.703598,9.002005 20.455564,8.005095 21.738173,7.275059 
	C22.581440,7.733106 22.894068,7.924280 23.206696,8.115454 
z"/>
<path fill="#111111" opacity="1.000000" stroke="none" 
	d="
M126.068932,31.643902 
	C125.998230,31.994925 125.502785,31.998890 125.255142,31.998161 
	C124.638176,31.127789 124.268860,30.258144 123.803070,29.161350 
	C125.942383,29.161350 127.991882,29.161350 130.392517,29.161350 
	C128.759628,29.979746 127.449631,30.636314 126.068932,31.643902 
z"/>
<path fill="#010101" opacity="1.000000" stroke="none" 
	d="
M8.025883,23.452478 
	C7.855528,25.255417 7.233427,26.922218 6.360244,28.777077 
	C6.597488,27.082203 7.085813,25.199272 8.025883,23.452478 
z"/>
<path fill="#1D1D1D" opacity="1.000000" stroke="none" 
	d="
M68.532494,21.090904 
	C67.512665,20.321165 66.843773,19.421511 66.137085,18.240713 
	C69.797676,18.399530 70.006210,18.624334 68.532494,21.090904 
z"/>
<path fill="#1D1D1D" opacity="1.000000" stroke="none" 
	d="
M64.944641,16.071388 
	C63.969826,15.501431 63.343914,14.904463 62.656349,14.116943 
	C63.667553,14.011613 64.740410,14.096833 65.813271,14.182053 
	C65.640022,14.802827 65.466782,15.423601 64.944641,16.071388 
z"/>
<path fill="#010101" opacity="1.000000" stroke="none" 
	d="
M219.105087,40.007294 
	C219.519180,40.003613 219.933258,39.999928 220.661484,40.250175 
	C220.982132,40.675140 220.988663,40.846169 220.995178,41.017197 
	C220.342850,41.672562 219.690536,42.327927 218.615250,42.659218 
	C218.496567,41.559196 218.800827,40.783245 219.105087,40.007294 
z"/>
<path fill="#A4A4A4" opacity="1.000000" stroke="none" 
	d="
M205.049835,31.993443 
	C203.712906,32.283802 202.806442,32.571888 201.899963,32.859974 
	C201.824631,32.419762 201.749298,31.979553 201.673950,31.539343 
	C203.942520,31.318472 206.211075,31.097601 208.479645,30.876730 
	C208.512344,31.149195 208.545044,31.421659 208.577744,31.694124 
	C207.545242,31.793140 206.512756,31.892157 205.049835,31.993443 
z"/>
<path fill="#1D1D1D" opacity="1.000000" stroke="none" 
	d="
M75.056915,40.760597 
	C74.793625,38.870678 74.570992,36.586090 74.678780,34.054752 
	C75.038651,35.993977 75.068115,38.179951 75.056915,40.760597 
z"/>
<path fill="#1B1B1B" opacity="1.000000" stroke="none" 
	d="
M218.905594,39.750931 
	C218.800827,40.783245 218.496567,41.559196 218.294159,42.668587 
	C217.608429,42.414181 216.820847,41.826324 216.033279,41.238472 
	C216.924225,40.657169 217.815170,40.075871 218.905594,39.750931 
z"/>
<path fill="#010101" opacity="1.000000" stroke="none" 
	d="
M63.434368,61.390789 
	C63.799850,61.485012 63.859890,61.770355 63.977386,62.488457 
	C63.562721,63.586159 63.090595,64.251106 62.288330,64.966370 
	C61.656960,64.975395 61.355732,64.934113 60.606419,64.796837 
	C61.148525,63.661194 62.138721,62.621548 63.434368,61.390789 
z"/>
<path fill="#010101" opacity="1.000000" stroke="none" 
	d="
M47.037666,4.860281 
	C46.203911,5.101337 45.473740,5.040665 44.371117,4.599520 
	C43.965389,3.830085 43.932114,3.441123 43.898842,3.052162 
	C44.979645,3.554293 46.060452,4.056423 47.037666,4.860281 
z"/>
<path fill="#010101" opacity="1.000000" stroke="none" 
	d="
M16.816818,63.790565 
	C16.980484,64.055771 16.938225,64.528976 16.916790,64.765663 
	C15.831625,64.157501 14.767893,63.312653 14.075304,62.180901 
	C15.182016,62.437790 15.917584,62.981575 16.816818,63.790565 
z"/>
<path fill="#010101" opacity="1.000000" stroke="none" 
	d="
M18.610035,10.004837 
	C18.988276,10.206066 19.024923,10.413219 19.005131,11.128075 
	C18.948689,11.635778 18.548330,11.920414 18.548330,11.920414 
	C17.911423,11.934646 17.274513,11.948877 16.321629,11.922723 
	C16.759914,11.258478 17.514177,10.634620 18.610035,10.004837 
z"/>
<path fill="#1D1D1D" opacity="1.000000" stroke="none" 
	d="
M55.254097,9.012853 
	C54.349251,8.555779 53.697708,8.114792 52.892410,7.412600 
	C53.818977,7.523071 54.899300,7.894746 55.994270,8.608376 
	C55.841743,8.976533 55.674576,9.002736 55.254097,9.012853 
z"/>
<path fill="#010101" opacity="1.000000" stroke="none" 
	d="
M11.326972,17.964516 
	C11.267403,18.782148 10.935659,19.330719 10.371960,19.965099 
	C9.887286,19.364378 9.634570,18.677845 9.381853,17.991314 
	C9.939501,17.892693 10.497149,17.794073 11.326972,17.964516 
z"/>
<path fill="#010101" opacity="1.000000" stroke="none" 
	d="
M11.398458,61.378716 
	C11.123007,60.721027 11.186228,60.344009 11.495090,59.435284 
	C12.533651,59.635338 13.326570,60.367096 14.222799,61.364159 
	C13.463117,61.639439 12.600122,61.649410 11.398458,61.378716 
z"/>
<path fill="#1D1D1D" opacity="1.000000" stroke="none" 
	d="
M103.755936,29.711103 
	C102.851021,30.542948 101.707611,31.096159 100.280151,31.832058 
	C99.768616,29.243145 100.827400,28.225571 103.755936,29.711103 
z"/>
<path fill="#171717" opacity="1.000000" stroke="none" 
	d="
M143.834290,28.991676 
	C143.012451,29.921621 141.817963,30.834797 140.319489,31.862888 
	C141.164230,30.976839 142.312927,29.975874 143.834290,28.991676 
z"/>
<path fill="#1C1C1C" opacity="1.000000" stroke="none" 
	d="
M164.988983,31.595310 
	C164.653915,30.928171 164.625061,30.263872 164.596191,29.599573 
	C164.871078,29.602831 165.145966,29.606089 165.420837,29.609346 
	C165.378952,30.272282 165.337067,30.935215 164.988983,31.595310 
z"/>
<path fill="#111111" opacity="1.000000" stroke="none" 
	d="
M89.047417,43.321106 
	C89.757683,43.004505 90.507347,42.991482 91.632263,42.978241 
	C91.033951,43.193577 90.060379,43.409130 89.047417,43.321106 
z"/>
<path fill="#1D1D1D" opacity="1.000000" stroke="none" 
	d="
M100.980652,43.082176 
	C101.732971,42.838840 102.469971,42.938450 103.576172,43.060661 
	C102.952034,43.197212 101.958687,43.311165 100.980652,43.082176 
z"/>
<path fill="#1D1D1D" opacity="1.000000" stroke="none" 
	d="
M51.045097,6.370545 
	C50.522755,6.506518 49.999531,6.322368 49.228100,5.996058 
	C49.463318,5.344051 49.946747,4.834207 50.430176,4.324363 
	C50.634857,4.899716 50.839535,5.475070 51.045097,6.370545 
z"/>
<path fill="#111111" opacity="1.000000" stroke="none" 
	d="
M123.049271,43.322060 
	C123.754883,43.019390 124.498863,43.015858 125.614594,43.017593 
	C125.020103,43.222305 124.053879,43.421753 123.049271,43.322060 
z"/>
<path fill="#1B1B1B" opacity="1.000000" stroke="none" 
	d="
M213.212769,29.732216 
	C213.292313,30.461969 213.181015,30.925835 213.041824,31.749912 
	C212.480881,31.229143 211.947845,30.348162 211.414795,29.467178 
	C211.950500,29.466894 212.486206,29.466612 213.212769,29.732216 
z"/>
<path fill="#F9F9F9" opacity="1.000000" stroke="none" 
	d="
M203.436218,35.495766 
	C202.823227,35.499908 202.647614,35.461472 202.202377,35.425835 
	C203.033127,34.792286 204.133514,34.155941 205.233917,33.519592 
	C205.440536,34.017624 205.647156,34.515652 205.853775,35.013683 
	C205.193710,35.160183 204.533646,35.306686 203.436218,35.495766 
z"/>
<path fill="#1B1B1B" opacity="1.000000" stroke="none" 
	d="
M214.792923,37.273575 
	C215.198608,37.020821 215.714340,37.016605 216.613632,37.021378 
	C216.299118,37.194283 215.601044,37.358196 214.792923,37.273575 
z"/>
<path fill="#E0E0E0" opacity="1.000000" stroke="none" 
	d="
M129.566498,34.003616 
	C129.843353,34.682465 129.786621,35.321476 129.356705,36.098194 
	C128.663712,36.012699 128.343918,35.789494 127.917282,35.282856 
	C128.284607,34.654205 128.758774,34.308990 129.566498,34.003616 
z"/>
<path fill="#1D1D1D" opacity="1.000000" stroke="none" 
	d="
M43.674191,3.050735 
	C43.932114,3.441123 43.965389,3.830085 44.014297,4.511882 
	C43.561401,4.827166 43.092861,4.849616 42.288086,4.760989 
	C42.152687,4.197901 42.353523,3.745889 42.777313,3.168723 
	C43.000267,3.043568 43.449539,3.049310 43.674191,3.050735 
z"/>
<path fill="#010101" opacity="1.000000" stroke="none" 
	d="
M23.423294,8.083081 
	C22.894068,7.924280 22.581440,7.733106 22.109068,7.318024 
	C22.603296,7.142655 23.257267,7.191195 23.955132,7.519844 
	C23.999022,7.799955 23.639893,8.050709 23.423294,8.083081 
z"/>
<path fill="#010101" opacity="1.000000" stroke="none" 
	d="
M11.588480,15.400261 
	C12.178678,15.525390 12.562552,15.919513 12.965494,16.612944 
	C12.814994,17.105829 12.619436,17.268080 12.213751,17.449978 
	C11.813795,16.890385 11.597976,16.279821 11.588480,15.400261 
z"/>
<path fill="#010101" opacity="1.000000" stroke="none" 
	d="
M32.343475,4.996535 
	C32.005859,4.528316 32.005356,4.091390 32.004223,3.326670 
	C32.632114,3.387807 33.260635,3.776738 33.945217,4.461352 
	C33.561050,4.847300 33.120819,4.937564 32.343475,4.996535 
z"/>
<path fill="#010101" opacity="1.000000" stroke="none" 
	d="
M26.928268,73.017609 
	C26.821255,72.236496 26.714241,71.455383 26.776188,71.150719 
	C26.939522,72.090645 26.933895,72.554131 26.928268,73.017609 
z"/>
<path fill="#1B1C1C" opacity="1.000000" stroke="none" 
	d="
M27.167347,72.992165 
	C26.933895,72.554131 26.939522,72.090645 26.965591,71.279068 
	C27.157093,70.950836 27.328154,70.970703 27.756577,70.965363 
	C27.987160,71.385246 27.960382,71.830338 27.910038,72.607155 
	C27.886475,72.938889 27.406425,72.966721 27.167347,72.992165 
z"/>
<path fill="#1C1C1C" opacity="1.000000" stroke="none" 
	d="
M154.219009,32.012321 
	C154.405945,31.887428 154.594757,31.948627 154.783554,32.009827 
	C154.595993,32.072685 154.408432,32.135548 154.219009,32.012321 
z"/>
<path fill="#010101" opacity="1.000000" stroke="none" 
	d="
M68.802841,54.872196 
	C68.590103,54.680611 68.646530,54.518349 68.889465,54.178291 
	C69.407318,54.177216 69.738647,54.353935 70.069977,54.530655 
	C69.737320,54.654278 69.404655,54.777901 68.802841,54.872196 
z"/>
<path fill="#010101" opacity="1.000000" stroke="none" 
	d="
M109.988754,43.254181 
	C110.093407,43.413723 110.041801,43.574539 109.990196,43.735352 
	C109.937630,43.575386 109.885063,43.415417 109.988754,43.254181 
z"/>
<path fill="#1C1C1C" opacity="1.000000" stroke="none" 
	d="
M155.983917,34.219200 
	C156.334213,34.424446 156.686111,34.966976 157.023117,35.854286 
	C156.667328,35.651539 156.326431,35.104008 155.983917,34.219200 
z"/>
<path fill="#1D1D1D" opacity="1.000000" stroke="none" 
	d="
M71.285202,26.963448 
	C71.014946,27.002607 70.673058,26.666054 70.647736,26.427521 
	C71.143600,26.267818 71.664787,26.346647 72.185982,26.425478 
	C71.975815,26.591749 71.765640,26.758018 71.285202,26.963448 
z"/>
<path fill="#010101" opacity="1.000000" stroke="none" 
	d="
M226.276123,31.739004 
	C225.880020,31.739799 225.590683,31.578718 225.166687,31.204121 
	C225.482315,31.186111 225.932617,31.381620 226.276123,31.739004 
z"/>
<path fill="#1B1B1B" opacity="1.000000" stroke="none" 
	d="
M221.248657,40.994995 
	C220.988663,40.846169 220.982132,40.675140 220.972046,40.247295 
	C221.412415,40.153633 221.856339,40.316792 222.300262,40.479942 
	C222.034210,40.644218 221.768158,40.808506 221.248657,40.994995 
z"/>
<path fill="#111111" opacity="1.000000" stroke="none" 
	d="
M90.816536,29.717587 
	C90.497566,29.984631 90.055969,30.006596 89.281601,30.017090 
	C89.530518,29.827915 90.112213,29.650211 90.816536,29.717587 
z"/>
<path fill="#171717" opacity="1.000000" stroke="none" 
	d="
M148.869110,29.896484 
	C148.386459,29.994474 147.791931,29.762539 147.010910,29.264727 
	C147.468689,29.188087 148.112961,29.377323 148.869110,29.896484 
z"/>
<path fill="#111111" opacity="1.000000" stroke="none" 
	d="
M132.845032,31.179316 
	C132.750443,30.949608 132.655838,30.719900 132.561249,30.490194 
	C132.692780,30.516159 132.824295,30.542126 132.979980,30.789423 
	C133.004135,31.010754 132.845032,31.179316 132.845032,31.179316 
z"/>
<path fill="#1D1D1D" opacity="1.000000" stroke="none" 
	d="
M52.214211,71.866928 
	C52.066151,71.960121 52.032097,71.487732 52.018402,71.251518 
	C52.123898,71.268120 52.243084,71.520927 52.214211,71.866928 
z"/>
<path fill="#010101" opacity="1.000000" stroke="none" 
	d="
M57.820786,9.827880 
	C57.612068,9.939178 57.247517,9.806017 56.750961,9.404979 
	C56.967625,9.285874 57.316288,9.434647 57.820786,9.827880 
z"/>
<path fill="#010101" opacity="1.000000" stroke="none" 
	d="
M61.856403,11.116686 
	C61.763084,11.027930 61.669762,10.939175 61.576439,10.850419 
	C61.685963,10.812188 61.795486,10.773957 61.919548,10.898127 
	C61.934086,11.060527 61.856403,11.116687 61.856403,11.116686 
z"/>
<path fill="#010101" opacity="1.000000" stroke="none" 
	d="
M61.766937,12.316642 
	C61.425175,12.410968 61.376453,12.397343 61.344353,12.396709 
	C61.468773,12.210490 61.625298,12.024903 61.819115,11.478002 
	C61.856403,11.116687 61.934086,11.060527 61.974251,11.038958 
	C62.109055,11.279074 62.236404,11.535017 62.283817,11.804998 
	C62.305767,11.929997 62.171913,12.082359 61.766937,12.316642 
z"/>
<path fill="#1D1D1D" opacity="1.000000" stroke="none" 
	d="
M70.624969,23.830141 
	C70.360336,23.893080 70.421341,23.780149 70.367584,23.752392 
	C70.609200,23.650499 70.904572,23.576361 71.199951,23.502224 
	C71.096497,23.590551 70.993050,23.678877 70.624969,23.830141 
z"/>
<path fill="#010101" opacity="1.000000" stroke="none" 
	d="
M5.438281,29.298515 
	C5.667271,29.313274 5.598095,29.372395 5.632524,29.397560 
	C5.514398,29.376404 5.361845,29.330080 5.438281,29.298515 
z"/>
<path fill="#111111" opacity="1.000000" stroke="none" 
	d="
M91.930359,30.881290 
	C91.706230,30.944054 91.440590,30.746225 91.116409,30.303699 
	C91.334854,30.246233 91.611855,30.433466 91.930359,30.881290 
z"/>
<path fill="#111111" opacity="1.000000" stroke="none" 
	d="
M133.088409,30.931204 
	C133.333923,31.036066 133.495163,31.220476 133.656387,31.404886 
	C133.457687,31.434845 133.259003,31.464804 132.952667,31.337040 
	C132.845032,31.179316 133.004135,31.010754 133.088409,30.931204 
z"/>
<path fill="#010101" opacity="1.000000" stroke="none" 
	d="
M70.631660,51.604393 
	C70.873505,51.701973 71.095901,51.864822 71.318306,52.027676 
	C71.133972,52.038818 70.949631,52.049957 70.626976,51.894024 
	C70.488655,51.726948 70.612221,51.669659 70.631660,51.604393 
z"/>
<path fill="#010101" opacity="1.000000" stroke="none" 
	d="
M92.839417,32.675175 
	C92.680161,32.755192 92.491425,32.612656 92.266968,32.256195 
	C92.432495,32.163658 92.625389,32.300442 92.839417,32.675175 
z"/>
<path fill="#171717" opacity="1.000000" stroke="none" 
	d="
M139.719879,32.105465 
	C139.807358,32.317486 139.638504,32.611828 139.228424,33.015228 
	C139.145966,32.812119 139.304764,32.499954 139.719879,32.105465 
z"/>
<path fill="#010101" opacity="1.000000" stroke="none" 
	d="
M148.004059,31.996849 
	C148.123306,32.133064 148.238480,32.272404 148.353653,32.411747 
	C148.270905,32.364830 148.188141,32.317917 148.049683,32.139439 
	C147.993958,32.007874 148.000000,31.999975 148.004059,31.996849 
z"/>
<path fill="#010101" opacity="1.000000" stroke="none" 
	d="
M112.471191,43.454575 
	C112.522209,43.425083 112.420166,43.484062 112.471191,43.454575 
z"/>
<path fill="#818181" opacity="1.000000" stroke="none" 
	d="
M208.247498,35.259018 
	C208.622253,35.212181 208.751816,35.404827 208.881378,35.597473 
	C208.588348,35.564476 208.295334,35.531487 208.247498,35.259018 
z"/>
<path fill="#555557" opacity="1.000000" stroke="none" 
	d="
M18.584816,12.225785 
	C18.548330,11.920414 18.948689,11.635778 19.086708,11.432901 
	C19.224730,11.230023 19.628067,11.067512 19.842083,11.029179 
	C21.630144,10.658714 23.321791,10.591077 24.759325,9.951913 
	C34.761196,5.504833 44.581429,5.645110 54.643078,10.857210 
	C66.646454,19.126940 72.405838,30.234396 69.425568,44.382084 
	C64.892624,65.900475 42.184021,75.729393 22.480900,65.018723 
	C18.973417,61.753326 15.808877,58.563480 12.388884,55.167313 
	C5.112005,42.120857 6.568889,29.743458 14.086994,17.329617 
	C15.448357,15.585880 16.889715,14.213758 18.728359,12.931224 
	C19.125645,13.020812 19.021692,12.998078 19.021692,12.998078 
	C18.888229,12.842439 18.754765,12.686798 18.584816,12.225785 
M52.564960,28.535664 
	C52.324863,26.686590 52.084770,24.837515 51.497276,22.760727 
	C51.280533,22.578674 51.126530,22.353685 51.602100,21.637497 
	C51.754055,16.925493 46.424667,10.112931 42.095356,10.459046 
	C38.664997,10.733294 34.216156,10.414289 32.651527,15.874804 
	C29.313322,19.261122 26.760941,22.958569 27.916178,28.853424 
	C27.907055,29.887365 27.897932,30.921307 27.460894,32.435280 
	C26.764315,37.291916 28.447054,40.900345 33.019745,43.498543 
	C33.019745,43.498543 32.997665,43.995811 32.954876,44.709927 
	C32.686352,46.087646 32.417831,47.465366 32.070187,49.723343 
	C31.994816,51.182056 31.919447,52.640770 31.089077,54.047493 
	C30.603357,53.962788 30.065393,53.698471 29.640274,53.822124 
	C26.558630,54.718449 23.499758,55.693073 20.433680,56.642921 
	C22.874729,57.732464 25.271029,58.945950 27.778574,59.851318 
	C28.799606,60.219963 30.254570,60.296173 31.167036,59.830009 
	C32.355042,59.223083 33.199688,57.944069 34.637352,57.204460 
	C35.075226,57.466579 35.513096,57.728699 36.457741,58.646580 
	C46.636272,60.058746 49.105194,58.062569 49.103973,48.428150 
	C49.103825,47.275345 49.125626,46.122540 49.429626,44.278606 
	C49.636147,42.528568 49.842663,40.778526 50.013298,39.008572 
	C50.013298,39.008572 50.014446,39.042793 50.368801,38.884644 
	C50.433155,38.774429 50.575958,38.596504 50.548916,38.565178 
	C50.392910,38.384438 50.196766,38.238346 50.106037,37.386116 
	C50.436226,35.274578 50.766415,33.163044 51.518261,30.804970 
	C51.786526,30.593237 51.958157,30.320635 52.012634,29.521036 
	C52.012634,29.521036 52.018208,29.054487 52.564960,28.535664 
M51.141006,56.182259 
	C52.857819,57.308678 54.448906,59.033978 56.319736,59.426720 
	C59.434280,60.080555 60.885410,57.613773 59.587173,55.269936 
	C58.790070,53.830837 55.894444,53.251522 53.845062,52.958809 
	C53.034855,52.843090 51.963943,54.552670 51.141006,56.182259 
z"/>
<path fill="#000000" opacity="1.000000" stroke="none" 
	d="
M50.442253,70.026337 
	C50.394619,69.981812 50.563068,69.998367 50.602890,70.013474 
	C50.642715,70.028572 50.489891,70.070869 50.442253,70.026337 
z"/>
<path fill="#111111" opacity="1.000000" stroke="none" 
	d="
M127.007797,34.997131 
	C126.577675,35.556053 126.139854,36.117790 125.702034,36.679527 
	C125.389648,36.345097 125.077255,36.010658 124.764870,35.676224 
	C125.306755,35.447025 125.848633,35.217827 126.698097,34.986687 
	C127.005676,34.984741 127.000099,34.999947 127.007797,34.997131 
z"/>
<path fill="#161727" opacity="1.000000" stroke="none" 
	d="
M49.137253,44.969734 
	C49.125626,46.122540 49.103825,47.275345 49.103973,48.428150 
	C49.105194,58.062569 46.636272,60.058746 36.568901,58.266930 
	C39.665417,56.645111 39.710064,54.509815 37.765469,52.560440 
	C36.212177,51.003338 34.044357,50.059261 32.149307,48.843086 
	C32.417831,47.465366 32.686352,46.087646 33.310310,44.454460 
	C36.072975,44.117210 38.480198,44.035435 41.303993,43.972816 
	C44.192795,44.317894 46.665024,44.643814 49.137253,44.969734 
z"/>
<path fill="#7D6E7E" opacity="1.000000" stroke="none" 
	d="
M33.003773,43.001068 
	C28.447054,40.900345 26.764315,37.291916 27.966532,32.332333 
	C31.415834,35.752502 34.157593,31.652515 37.000366,32.306751 
	C36.955692,33.015038 36.927879,33.419632 36.882980,33.844749 
	C36.865898,33.865273 36.829750,33.904575 36.592033,33.944206 
	C36.125759,34.175694 35.897202,34.367550 35.668644,34.559410 
	C36.098156,34.718491 36.527664,34.877571 37.306488,35.054611 
	C38.120880,35.102379 38.585968,35.132187 39.092117,35.464638 
	C39.176132,35.966305 39.219086,36.165333 39.096611,36.627556 
	C38.510330,37.602573 38.089470,38.314388 37.353813,39.059311 
	C36.695808,39.791943 36.352604,40.491470 35.843395,41.452450 
	C34.786186,42.142960 33.894981,42.572014 33.003773,43.001068 
z"/>
<path fill="#312F3D" opacity="1.000000" stroke="none" 
	d="
M32.977898,15.338812 
	C34.216156,10.414289 38.664997,10.733294 42.095356,10.459046 
	C46.424667,10.112931 51.754055,16.925493 51.289238,21.841434 
	C50.976379,22.045374 50.904999,22.047131 50.791042,21.731457 
	C48.831104,20.249601 46.985123,19.083420 44.961941,17.633335 
	C43.170502,16.317606 41.556267,15.285780 39.585381,14.203178 
	C38.511658,14.198491 37.794582,14.244579 36.788879,14.251235 
	C36.001034,14.511201 35.501808,14.810599 34.660652,15.088415 
	C33.871780,15.157493 33.424839,15.248153 32.977898,15.338812 
z"/>
<path fill="#5B79A4" opacity="1.000000" stroke="none" 
	d="
M34.192097,56.954281 
	C33.199688,57.944069 32.355042,59.223083 31.167036,59.830009 
	C30.254570,60.296173 28.799606,60.219963 27.778574,59.851318 
	C25.271029,58.945950 22.874729,57.732464 20.433680,56.642921 
	C23.499758,55.693073 26.558630,54.718449 29.640274,53.822124 
	C30.065393,53.698471 30.603357,53.962788 31.694210,54.311844 
	C32.930260,55.368893 33.561180,56.161587 34.192097,56.954281 
z"/>
<path fill="#877B82" opacity="1.000000" stroke="none" 
	d="
M32.814713,15.606808 
	C33.424839,15.248153 33.871780,15.157493 34.660095,15.411291 
	C35.010727,16.187929 35.019985,16.620111 35.031895,17.461159 
	C34.035648,20.574692 33.036751,23.279356 31.732380,26.130985 
	C30.223696,26.880234 29.020487,27.482515 27.817276,28.084799 
	C26.760941,22.958569 29.313322,19.261122 32.814713,15.606808 
z"/>
<path fill="#7D7691" opacity="1.000000" stroke="none" 
	d="
M27.866726,28.469112 
	C29.020487,27.482515 30.223696,26.880234 32.064629,26.127964 
	C34.147541,26.372446 35.592731,26.766914 37.042427,27.512911 
	C37.360348,28.900852 37.673763,29.937265 37.886059,31.196383 
	C37.592911,31.697712 37.337009,31.892370 37.017231,32.003063 
	C34.157593,31.652515 31.415834,35.752502 28.180489,32.092316 
	C27.897932,30.921307 27.907055,29.887365 27.866726,28.469112 
z"/>
<path fill="#506E95" opacity="1.000000" stroke="none" 
	d="
M51.076374,55.806702 
	C51.963943,54.552670 53.034855,52.843090 53.845062,52.958809 
	C55.894444,53.251522 58.790070,53.830837 59.587173,55.269936 
	C60.885410,57.613773 59.434280,60.080555 56.319736,59.426720 
	C54.448906,59.033978 52.857819,57.308678 51.076374,55.806702 
z"/>
<path fill="#2F2324" opacity="1.000000" stroke="none" 
	d="
M49.283440,44.624168 
	C46.665024,44.643814 44.192795,44.317894 41.315834,43.645870 
	C40.262573,42.533157 39.614044,41.766552 39.334824,41.010551 
	C40.441936,40.996132 41.179729,40.971107 42.277359,40.896828 
	C42.860455,40.755116 43.083714,40.662666 43.627529,40.588669 
	C45.298641,39.751900 46.649200,38.896683 48.179283,38.281174 
	C48.922260,38.690083 49.485718,38.859283 50.049179,39.028488 
	C49.842663,40.778526 49.636147,42.528568 49.283440,44.624168 
z"/>
<path fill="#363650" opacity="1.000000" stroke="none" 
	d="
M34.414726,57.079369 
	C33.561180,56.161587 32.930260,55.368893 32.071709,54.337841 
	C31.919447,52.640770 31.994816,51.182056 32.109749,49.283215 
	C34.044357,50.059261 36.212177,51.003338 37.765469,52.560440 
	C39.710064,54.509815 39.665417,56.645111 36.315517,57.939049 
	C35.513096,57.728699 35.075226,57.466579 34.414726,57.079369 
z"/>
<path fill="#453E3A" opacity="1.000000" stroke="none" 
	d="
M50.031239,39.018532 
	C49.485718,38.859283 48.922260,38.690083 48.181541,37.858574 
	C48.012272,35.791973 48.020264,34.387684 48.161278,32.931122 
	C48.201481,32.909428 48.108658,32.940006 47.646008,32.964432 
	C46.536568,32.960781 45.796947,32.963284 45.014805,32.665016 
	C44.951851,31.959482 44.931427,31.554716 44.946365,30.817368 
	C44.991886,30.262930 45.002041,30.041079 45.330986,29.818741 
	C46.074787,29.812836 46.499798,29.807417 47.083763,30.076389 
	C47.813046,30.561905 48.383369,30.773029 49.310394,30.992458 
	C50.143600,31.017679 50.620102,31.034594 51.096603,31.051508 
	C50.766415,33.163044 50.436226,35.274578 50.063858,37.973469 
	C50.021683,38.560822 50.014446,39.042793 50.014446,39.042793 
	C50.014446,39.042793 50.013298,39.008572 50.031239,39.018532 
z"/>
<path fill="#8E7E96" opacity="1.000000" stroke="none" 
	d="
M38.965511,40.999943 
	C39.614044,41.766552 40.262573,42.533157 40.899265,43.626709 
	C38.480198,44.035435 36.072975,44.117210 33.331707,44.097401 
	C32.997665,43.995811 33.019745,43.498543 33.011757,43.249805 
	C33.894981,42.572014 34.786186,42.142960 36.212357,41.416107 
	C37.486717,41.078857 38.226112,41.039402 38.965511,40.999943 
z"/>
<path fill="#504B51" opacity="1.000000" stroke="none" 
	d="
M51.005821,22.065567 
	C51.126530,22.353685 51.280533,22.578674 51.697601,23.172943 
	C51.931747,24.723152 51.965569,25.861145 51.626526,26.999819 
	C50.508881,26.989401 49.764099,26.978302 48.993866,26.751757 
	C48.968418,26.536310 48.909451,26.105730 49.174606,25.891598 
	C49.928173,24.467354 50.416588,23.257242 50.904999,22.047131 
	C50.904999,22.047131 50.976379,22.045374 51.005821,22.065567 
z"/>
<path fill="#453E3A" opacity="1.000000" stroke="none" 
	d="
M49.019318,26.967203 
	C49.764099,26.978302 50.508881,26.989401 51.627022,27.342072 
	C52.006325,28.140593 52.012264,28.597540 52.018204,29.054487 
	C52.018208,29.054487 52.012634,29.521036 51.644981,29.757191 
	C50.523106,29.996700 49.768883,30.000055 49.006039,29.757126 
	C48.997417,29.510843 48.979164,29.018398 48.988251,28.676733 
	C49.004665,27.879112 49.011990,27.423159 49.019318,26.967203 
z"/>
<path fill="#3E393A" opacity="1.000000" stroke="none" 
	d="
M52.291580,28.795074 
	C52.012264,28.597540 52.006325,28.140593 51.999886,27.341393 
	C51.965569,25.861145 51.931747,24.723152 51.871300,23.286800 
	C52.084770,24.837515 52.324863,26.686590 52.291580,28.795074 
z"/>
<path fill="#3E393A" opacity="1.000000" stroke="none" 
	d="
M49.014660,30.003410 
	C49.768883,30.000055 50.523106,29.996700 51.655239,29.990255 
	C51.958157,30.320635 51.786526,30.593237 51.307434,30.928238 
	C50.620102,31.034594 50.143600,31.017679 49.323673,30.747227 
	C48.980247,30.493690 49.014660,30.003410 49.014660,30.003410 
z"/>
<path fill="#1D1D1D" opacity="1.000000" stroke="none" 
	d="
M19.014278,13.000444 
	C19.021692,12.998078 19.125645,13.020812 19.064014,13.019435 
	C19.002386,13.018058 19.006865,13.002810 19.014278,13.000444 
z"/>
<path fill="#2F2324" opacity="1.000000" stroke="none" 
	d="
M50.191624,38.963718 
	C50.014446,39.042793 50.021683,38.560822 50.017952,38.320671 
	C50.196766,38.238346 50.392910,38.384438 50.548916,38.565178 
	C50.575958,38.596504 50.433155,38.774429 50.191624,38.963718 
z"/>
<path fill="#6E6060" opacity="1.000000" stroke="none" 
	d="
M48.028252,32.983395 
	C48.020264,34.387684 48.012272,35.791973 48.002022,37.618866 
	C46.649200,38.896683 45.298641,39.751900 43.528797,40.279400 
	C43.059765,39.288155 43.010017,38.624630 42.951000,37.601151 
	C41.715168,36.948917 40.488602,36.656639 39.262039,36.364357 
	C39.219086,36.165333 39.176132,35.966305 39.292713,35.387554 
	C39.452248,35.007832 39.853504,34.854336 40.160843,34.869873 
	C40.936699,34.584072 41.405216,34.282738 42.233017,33.996864 
	C43.413975,33.663475 44.235653,33.314629 45.057331,32.965786 
	C45.796947,32.963284 46.536568,32.960781 47.637863,32.979179 
	C47.999538,33.000076 48.028252,32.983395 48.028252,32.983395 
z"/>
<path fill="#9A8B94" opacity="1.000000" stroke="none" 
	d="
M41.873734,33.981400 
	C41.405216,34.282738 40.936699,34.584072 39.958527,34.620895 
	C38.599266,34.178993 37.749668,34.001610 36.900066,33.824230 
	C36.927879,33.419632 36.955692,33.015038 37.000366,32.306751 
	C37.337009,31.892370 37.592911,31.697712 38.223991,31.146524 
	C39.449257,31.608507 40.235470,32.343056 41.090431,33.287987 
	C41.328835,33.760738 41.567017,33.921745 41.873734,33.981400 
z"/>
<path fill="#635662" opacity="1.000000" stroke="none" 
	d="
M39.334824,41.010551 
	C38.226112,41.039402 37.486717,41.078857 36.378357,41.154655 
	C36.352604,40.491470 36.695808,39.791943 37.747055,39.057541 
	C38.973125,39.055801 39.491154,39.088940 40.155899,39.350357 
	C40.840916,40.034454 41.379223,40.490269 41.917526,40.946083 
	C41.179729,40.971107 40.441936,40.996132 39.334824,41.010551 
z"/>
<path fill="#1B0F15" opacity="1.000000" stroke="none" 
	d="
M40.009186,39.122074 
	C39.491154,39.088940 38.973125,39.055801 38.061852,39.024437 
	C38.089470,38.314388 38.510330,37.602573 39.096611,36.627556 
	C40.488602,36.656639 41.715168,36.948917 42.610466,37.626831 
	C41.522533,38.382332 40.765858,38.752205 40.009186,39.122074 
z"/>
<path fill="#BCA8B2" opacity="1.000000" stroke="none" 
	d="
M36.882980,33.844749 
	C37.749668,34.001610 38.599266,34.178993 39.651184,34.605354 
	C39.853504,34.854336 39.452248,35.007832 39.251648,35.084915 
	C38.585968,35.132187 38.120880,35.102379 37.286697,34.770092 
	C36.888313,34.279938 36.859032,34.092258 36.829750,33.904575 
	C36.829750,33.904575 36.865898,33.865273 36.882980,33.844749 
z"/>
<path fill="#9A8B94" opacity="1.000000" stroke="none" 
	d="
M36.592033,33.944206 
	C36.859032,34.092258 36.888313,34.279938 36.937386,34.752132 
	C36.527664,34.877571 36.098156,34.718491 35.668644,34.559410 
	C35.897202,34.367550 36.125759,34.175694 36.592033,33.944206 
z"/>
<path fill="#928DA3" opacity="1.000000" stroke="none" 
	d="
M37.037922,27.161383 
	C35.592731,26.766914 34.147541,26.372446 32.370102,25.980999 
	C33.036751,23.279356 34.035648,20.574692 35.354179,17.399864 
	C36.141708,16.050022 36.609608,15.170344 37.077503,14.290667 
	C37.794582,14.244579 38.511658,14.198491 39.650517,14.545525 
	C40.506351,17.109585 40.767033,19.338928 41.468033,21.419947 
	C41.715054,22.153257 43.039658,22.523579 44.024586,23.333529 
	C44.421196,24.376337 44.665470,25.145250 44.597153,25.951500 
	C43.330318,26.641394 42.376076,27.293947 41.413258,27.908417 
	C41.404682,27.870331 41.350780,27.813843 41.032879,27.615849 
	C39.489292,27.332365 38.263607,27.246874 37.037922,27.161383 
z"/>
<path fill="#635857" opacity="1.000000" stroke="none" 
	d="
M44.909748,25.914162 
	C44.665470,25.145250 44.421196,24.376337 44.060898,22.947912 
	C44.342964,20.831347 44.741051,19.374292 45.139141,17.917238 
	C46.985123,19.083420 48.831104,20.249601 50.791042,21.731457 
	C50.416588,23.257242 49.928173,24.467354 48.777428,25.868406 
	C47.046646,26.010952 45.978199,25.962557 44.909748,25.914162 
z"/>
<path fill="#7D7D8C" opacity="1.000000" stroke="none" 
	d="
M44.961941,17.633335 
	C44.741051,19.374292 44.342964,20.831347 43.908562,22.674017 
	C43.039658,22.523579 41.715054,22.153257 41.468033,21.419947 
	C40.767033,19.338928 40.506351,17.109585 40.007164,14.596300 
	C41.556267,15.285780 43.170502,16.317606 44.961941,17.633335 
z"/>
<path fill="#7D7D8C" opacity="1.000000" stroke="none" 
	d="
M36.788879,14.251234 
	C36.609608,15.170344 36.141708,16.050022 35.351528,16.990997 
	C35.019985,16.620111 35.010727,16.187929 35.002029,15.432873 
	C35.501808,14.810599 36.001034,14.511201 36.788879,14.251234 
z"/>
<path fill="#363548" opacity="1.000000" stroke="none" 
	d="
M37.042427,27.512911 
	C38.263607,27.246874 39.489292,27.332365 40.935753,27.936573 
	C41.423985,29.288805 41.691441,30.122320 41.706482,31.137661 
	C41.309940,31.905523 41.165813,32.491562 41.021683,33.077602 
	C40.235470,32.343056 39.449257,31.608507 38.325111,30.923819 
	C37.673763,29.937265 37.360348,28.900852 37.042427,27.512911 
z"/>
<path fill="#453A40" opacity="1.000000" stroke="none" 
	d="
M40.155899,39.350357 
	C40.765858,38.752205 41.522533,38.382332 42.619736,37.986782 
	C43.010017,38.624630 43.059765,39.288155 43.208244,40.260952 
	C43.083714,40.662666 42.860455,40.755116 42.277359,40.896828 
	C41.379223,40.490269 40.840916,40.034454 40.155899,39.350357 
z"/>
<path fill="#807485" opacity="1.000000" stroke="none" 
	d="
M41.090431,33.287987 
	C41.165813,32.491562 41.309940,31.905523 42.076355,31.168472 
	C43.436089,31.061623 44.173546,31.105787 44.910999,31.149952 
	C44.931427,31.554716 44.951851,31.959482 45.014805,32.665016 
	C44.235653,33.314629 43.413975,33.663475 42.233013,33.996861 
	C41.567017,33.921745 41.328835,33.760738 41.090431,33.287987 
z"/>
<path fill="#73778F" opacity="1.000000" stroke="none" 
	d="
M46.924805,29.801998 
	C46.499798,29.807417 46.074787,29.812836 45.147530,29.601931 
	C44.063862,28.905685 43.482437,28.425764 43.134766,27.729393 
	C44.592213,27.670187 45.815910,27.827431 47.021568,28.288553 
	C46.977287,28.995621 46.951046,29.398809 46.924805,29.801998 
z"/>
<path fill="#4E4C61" opacity="1.000000" stroke="none" 
	d="
M42.901016,27.945845 
	C43.482437,28.425764 44.063862,28.905685 44.828739,29.602417 
	C45.002041,30.041079 44.991886,30.262930 44.946365,30.817368 
	C44.173546,31.105787 43.436089,31.061623 42.328766,30.986647 
	C41.691441,30.122320 41.423985,29.288805 41.253654,28.134567 
	C41.350780,27.813843 41.404682,27.870331 41.783363,27.903900 
	C42.408371,27.940262 42.654694,27.943054 42.901016,27.945845 
z"/>
<path fill="#4E4C61" opacity="1.000000" stroke="none" 
	d="
M47.083763,30.076389 
	C46.951046,29.398809 46.977287,28.995621 47.278244,28.387733 
	C48.028362,28.461489 48.503761,28.739944 48.979164,29.018398 
	C48.979164,29.018398 48.997417,29.510843 49.006039,29.757126 
	C49.014660,30.003410 48.980247,30.493690 48.966972,30.738922 
	C48.383369,30.773029 47.813046,30.561905 47.083763,30.076389 
z"/>
<path fill="#4E4C61" opacity="1.000000" stroke="none" 
	d="
M48.007683,32.985329 
	C48.108658,32.940006 48.201481,32.909428 48.161278,32.931122 
	C48.028252,32.983395 47.999538,33.000076 48.007683,32.985329 
z"/>
<path fill="#363548" opacity="1.000000" stroke="none" 
	d="
M48.988251,28.676733 
	C48.503761,28.739944 48.028362,28.461489 47.296280,28.083855 
	C45.815910,27.827431 44.592213,27.670187 43.134766,27.729393 
	C42.654694,27.943054 42.408371,27.940262 41.791939,27.941986 
	C42.376076,27.293947 43.330318,26.641394 44.597153,25.951500 
	C45.978199,25.962557 47.046646,26.010952 48.512276,26.082539 
	C48.909451,26.105730 48.968418,26.536310 48.993866,26.751757 
	C49.011990,27.423159 49.004665,27.879112 48.988251,28.676733 
z"/>
</svg>